<svg
    xmlns="http://www.w3.org/2000/svg"
    viewBox="0 0 100 100"
    width="50"
    height="50"
>
    <defs>
        <linearGradient id="gradient" x1="0%" y1="0%" x2="100%" y2="0%">
            <stop offset="0%" style='stop-color: "#8a2be2" , stop-opacity: 1'>
                <animate
                    attributeName="stop-color"
                    values="#8a2be2;#00c6ff;#8a2be2;"
                    dur="3s"
                    repeatCount="indefinite"
                />
            </stop>

            <stop offset="100%" style='stop-color: "#00c6ff" , stop-opacity: 1'>
                <animate
                    attributeName="stop-color"
                    values="#00c6ff;#8a2be2;#00c6ff;#8a2be2;#00c6ff"
                    dur="3s"
                    repeatCount="indefinite"
                />
            </stop>
        </linearGradient>
    </defs>
    <path
        fill="url(#gradient)"
        d="M51,38,50,27.5,49,38A12.25,12.25,0,0,1,38,49L27.5,50,38,51A12.25,12.25,0,0,1,49,62L50,72.5,51,62A12.25,12.25,0,0,1,62,51L72.5,50,62,49A12.25,12.25,0,0,1,51,38Z"
    >
        <animateTransform
            attributeName="transform"
            attributeType="XML"
            type="scale"
            values="1;1.2;1"
            dur="2s"
            repeatCount="indefinite"
        />
    </path>
    <path
        fill="url(#gradient)"
        d="M63.83,40.26l.36,3.87.35-3.87a4.53,4.53,0,0,1,4.09-4.09l3.87-.36-3.87-.35a4.53,4.53,0,0,1-4.09-4.09l-.35-3.87-.36,3.87a4.53,4.53,0,0,1-4.09,4.09l-3.87.35,3.87.36A4.53,4.53,0,0,1,63.83,40.26Z"
    >
        <animateTransform
            attributeName="transform"
            attributeType="XML"
            type="scale"
            values="1;1.1;1"
            dur="1.5s"
            repeatCount="indefinite"
        />
    </path>
    <path
        fill="url(#gradient)"
        d="M38.47,63.27l-.19-2.05-.19,2.05a2.39,2.39,0,0,1-2.16,2.17l-2,.18,2,.19A2.39,2.39,0,0,1,38.09,68l.19,2,.19-2a2.41,2.41,0,0,1,2.17-2.17l2-.19-2-.18A2.41,2.41,0,0,1,38.47,63.27Z"
    >
        <animateTransform
            attributeName="transform"
            attributeType="XML"
            type="scale"
            values="1;1.3;1"
            dur="2.5s"
            repeatCount="indefinite"
        />
    </path>
</svg>